<?xml version="1.0" standalone="no"?>
<!DOCTYPE svg PUBLIC "-//W3C//DTD SVG 20010904//EN"
 "http://www.w3.org/TR/2001/REC-SVG-20010904/DTD/svg10.dtd">
<svg version="1.0" xmlns="http://www.w3.org/2000/svg"
 width="756.000000pt" height="756.000000pt" viewBox="0 0 756.000000 756.000000"
 preserveAspectRatio="xMidYMid meet">
<metadata>
Created by potrace 1.14, written by Peter Selinger 2001-2017
</metadata>
<g transform="translate(0.000000,756.000000) scale(0.100000,-0.100000)"
fill="#000000" stroke="none">
<path d="M7 7553 c-4 -3 -7 -1704 -7 -3780 l0 -3773 3780 0 3780 0 -2 3778 -3
3777 -3771 3 c-2074 1 -3774 -1 -3777 -5z m4043 -449 c63 -8 138 -19 165 -23
138 -24 183 -33 210 -41 17 -5 50 -14 75 -20 25 -7 53 -16 62 -21 10 -5 25 -9
33 -9 8 0 23 -4 33 -9 37 -20 129 -61 136 -61 4 0 28 -9 54 -21 26 -11 56 -24
67 -28 71 -30 135 -64 145 -76 7 -8 17 -15 22 -15 6 0 30 -13 55 -30 24 -16
46 -30 48 -30 9 0 110 -74 126 -92 9 -10 20 -18 24 -18 14 0 226 -207 298
-291 71 -84 87 -104 87 -112 0 -5 6 -14 13 -22 23 -24 47 -55 47 -61 0 -3 15
-28 33 -57 40 -62 97 -180 97 -199 0 -8 4 -18 9 -23 18 -21 51 -147 62 -240
11 -92 10 -103 -12 -174 -12 -42 -26 -80 -31 -85 -4 -6 -8 -22 -8 -37 0 -15
-4 -31 -10 -34 -5 -3 -10 -15 -10 -26 0 -10 -4 -19 -9 -19 -5 0 -13 -14 -16
-32 -10 -45 -27 -68 -48 -68 -19 0 -89 37 -142 76 -41 29 -167 98 -254 138
-19 9 -45 16 -58 16 -12 0 -23 5 -23 10 0 6 -11 10 -24 10 -14 0 -28 5 -31 10
-3 6 -17 10 -30 10 -13 0 -27 5 -30 10 -3 6 -17 10 -31 10 -13 0 -24 -4 -24
-10 0 -10 21 -14 48 -11 6 1 12 -3 12 -9 0 -5 8 -10 18 -10 29 0 301 -140 375
-193 83 -59 169 -142 190 -183 20 -39 13 -91 -18 -130 l-23 -28 -51 32 c-29
18 -57 32 -62 32 -5 0 -9 3 -9 8 0 10 -87 45 -97 39 -5 -3 -49 3 -98 14 -159
33 -409 58 -920 91 -250 16 -1123 16 -1375 -1 -329 -21 -610 -44 -735 -60
-113 -15 -248 -42 -259 -52 -5 -5 -15 -4 -22 2 -8 7 -32 -1 -81 -27 -37 -20
-70 -40 -73 -44 -12 -18 -84 -49 -91 -39 -9 16 -19 -16 -19 -62 0 -45 -8 -48
-32 -15 -22 31 -38 102 -31 138 6 29 27 38 36 16 3 -7 6 4 6 25 1 20 6 37 11
37 6 0 10 7 10 15 0 14 30 52 87 111 13 13 44 38 70 55 27 18 50 36 51 41 2 4
10 8 17 8 7 0 15 3 17 8 2 4 24 18 51 31 26 13 47 28 47 33 0 4 5 8 11 8 6 0
33 11 61 25 27 14 61 25 74 25 13 0 24 4 24 9 0 5 15 14 33 21 72 28 87 35 87
42 0 12 -28 10 -35 -2 -3 -5 -17 -10 -30 -10 -13 0 -27 -4 -30 -10 -3 -5 -15
-10 -26 -10 -10 0 -27 -4 -37 -9 -28 -14 -65 -29 -91 -37 -13 -3 -46 -19 -73
-35 -27 -16 -53 -29 -58 -29 -6 0 -10 -4 -10 -8 0 -5 -16 -14 -35 -22 -19 -8
-35 -17 -35 -21 0 -3 -13 -12 -30 -19 -16 -7 -30 -16 -30 -21 0 -4 -8 -10 -18
-13 -10 -4 -27 -14 -38 -24 -24 -20 -60 -42 -72 -42 -5 0 -28 39 -51 88 -24
48 -46 94 -50 102 -5 8 -14 40 -21 70 -8 30 -18 60 -23 67 -10 14 13 253 25
253 4 0 8 14 8 30 0 17 5 30 10 30 6 0 10 14 10 30 0 17 3 30 8 30 4 0 16 28
27 63 10 34 22 64 25 67 3 3 21 37 40 75 19 39 43 77 52 86 10 9 18 23 18 30
0 18 76 121 129 176 23 24 41 45 41 49 0 5 19 27 96 107 17 17 46 44 63 58 18
15 53 46 79 70 57 54 145 119 192 145 19 10 37 21 40 24 3 3 17 11 33 19 15 8
27 18 27 23 0 4 9 8 19 8 11 0 21 3 23 8 4 10 155 82 173 82 8 0 17 5 20 10 3
6 15 10 26 10 10 0 19 5 19 10 0 6 9 10 20 10 11 0 20 5 20 10 0 6 14 10 30
10 17 0 30 3 30 8 0 9 49 32 70 32 9 0 20 3 24 7 24 24 293 79 494 102 46 5
86 12 90 15 11 12 250 5 362 -10z m1811 -2191 c5 -66 -3 -127 -19 -139 -9 -7
-21 -14 -26 -14 -12 0 4 141 18 156 16 18 26 17 27 -3z m-3801 -49 c0 -3 -7
-12 -15 -21 -20 -19 -32 -10 -14 11 14 15 29 21 29 10z m608 -311 c-16 -2 -40
-2 -55 0 -16 2 -3 4 27 4 30 0 43 -2 28 -4z m2410 0 c-16 -2 -40 -2 -55 0 -16
2 -3 4 27 4 30 0 43 -2 28 -4z m-2545 -21 c-13 -2 -23 -8 -23 -13 0 -5 -5 -9
-12 -9 -6 0 -4 8 6 19 11 12 24 17 34 13 14 -6 13 -7 -5 -10z m2665 -14 c2 -4
12 -8 23 -8 10 0 19 -5 19 -11 0 -7 -7 -8 -17 -4 -10 4 -27 10 -38 13 -11 3
-26 12 -34 19 -11 12 -9 13 15 7 16 -4 31 -11 32 -16z m-2758 -51 c0 -7 9 -18
20 -25 15 -9 20 -23 20 -55 0 -46 -18 -81 -74 -141 -20 -21 -36 -42 -36 -47 0
-4 -7 -15 -16 -23 -8 -9 -19 -29 -24 -45 -9 -34 3 -55 37 -65 18 -6 29 3 64
49 34 45 47 55 71 55 26 0 29 -3 27 -27 -3 -44 0 -63 12 -63 6 0 9 6 6 13 -2
6 6 31 19 54 12 22 21 43 18 46 -2 2 2 10 11 17 8 7 15 18 15 24 1 19 112 120
160 144 24 13 65 28 90 34 60 15 195 14 249 -1 62 -17 141 -52 141 -62 0 -5 6
-9 14 -9 24 0 109 -104 151 -185 l40 -77 3 42 c2 24 10 49 18 57 12 12 13 0 8
-94 -3 -59 -10 -112 -15 -117 -5 -6 -9 -25 -9 -43 0 -18 -4 -33 -10 -33 -5 0
-10 -13 -10 -30 0 -16 -4 -30 -10 -30 -5 0 -10 -9 -10 -20 0 -11 -4 -20 -10
-20 -5 0 -10 -8 -10 -19 0 -10 -9 -30 -20 -44 -11 -14 -20 -30 -20 -36 0 -37
-191 -181 -241 -181 -11 0 -19 -4 -19 -10 0 -5 -15 -10 -33 -10 -18 0 -37 -4
-43 -9 -13 -13 -263 -19 -267 -6 -2 5 -20 10 -41 11 -20 1 -43 8 -52 15 -13
10 -17 10 -25 -2 -8 -11 -9 -10 -7 5 3 21 -41 40 -70 29 -11 -5 -14 -2 -10 8
7 17 -27 43 -42 34 -6 -4 -7 1 -3 11 5 13 2 16 -8 12 -10 -4 -26 12 -49 48
-19 30 -38 54 -42 54 -4 0 -8 7 -8 15 0 8 -4 15 -10 15 -5 0 -10 6 -10 13 0 6
-9 23 -20 37 -11 14 -20 33 -20 42 0 10 -6 37 -14 60 -27 79 -46 321 -27 332
6 4 11 22 11 39 0 18 10 60 23 94 31 87 107 172 107 120z m2850 -23 c0 -8 5
-14 10 -14 6 0 10 -7 10 -15 0 -8 5 -15 10 -15 6 0 10 -9 10 -20 0 -11 5 -20
10 -20 6 0 10 -14 10 -30 0 -17 4 -38 9 -48 19 -37 34 -221 19 -248 -2 -5 -6
-31 -7 -59 -2 -27 -4 -58 -4 -67 -1 -10 -5 -18 -9 -18 -4 0 -8 -8 -8 -17 0
-28 -68 -159 -101 -194 -16 -17 -29 -37 -29 -45 0 -8 -4 -14 -10 -14 -5 0 -10
-7 -10 -16 0 -11 -5 -14 -16 -10 -12 4 -15 2 -10 -9 4 -10 -1 -14 -16 -12 -13
1 -26 -6 -32 -18 -6 -11 -15 -20 -21 -21 -29 -3 -55 -18 -55 -31 0 -12 -3 -13
-14 -4 -11 9 -20 9 -35 2 -11 -6 -33 -11 -50 -11 -18 0 -31 -5 -31 -12 0 -10
-31 -12 -132 -10 -73 2 -137 8 -142 13 -6 5 -19 9 -31 9 -25 0 -75 22 -75 33
0 4 -7 7 -17 7 -48 0 -196 125 -225 191 -7 16 -16 29 -20 29 -5 0 -8 7 -8 15
0 8 -4 23 -9 33 -32 63 -47 127 -61 257 -10 90 -2 118 16 59 6 -21 12 -31 13
-22 1 9 15 40 31 68 17 28 30 53 30 55 0 12 87 105 99 105 5 0 14 7 21 15 19
23 137 75 170 75 16 0 32 5 35 10 9 15 115 12 187 -6 68 -16 148 -52 148 -66
0 -4 6 -8 13 -8 26 0 147 -151 147 -183 0 -8 6 -27 14 -42 18 -34 31 -16 27
37 -1 33 1 38 19 38 22 0 70 -43 108 -97 20 -29 25 -31 47 -21 19 9 25 19 25
45 0 18 -4 33 -10 33 -5 0 -10 5 -10 12 0 6 -25 44 -55 83 -51 68 -55 76 -55
128 0 47 3 57 20 62 11 3 20 13 20 20 0 9 6 12 15 9 8 -4 15 -12 15 -20z
m-3307 -154 c19 -16 39 -30 44 -30 41 0 73 -84 73 -191 0 -26 5 -51 10 -54 6
-3 10 -26 10 -51 0 -24 -4 -44 -10 -44 -5 0 -10 -23 -10 -51 0 -33 -5 -56 -14
-63 -11 -9 -13 -25 -5 -81 4 -38 13 -108 19 -155 5 -47 12 -91 15 -98 4 -10
-20 -12 -108 -10 -111 3 -112 3 -115 28 -2 14 -7 34 -12 45 -5 11 -11 34 -14
50 -3 17 -10 53 -16 80 -40 196 -52 300 -47 420 5 120 15 153 61 203 39 41 74
42 119 2z m3828 3 c29 -33 47 -68 52 -103 2 -14 7 -33 11 -42 12 -27 -6 -274
-29 -388 -15 -77 -37 -178 -52 -237 l-16 -63 -195 0 -194 0 7 23 c4 12 10 45
15 72 4 28 10 58 15 68 9 21 38 22 55 2 25 -30 30 -13 30 98 0 62 4 117 9 123
5 5 11 20 14 34 2 14 5 -26 6 -87 0 -62 -3 -113 -8 -113 -5 0 -11 -35 -15 -77
-3 -43 -7 -89 -8 -103 -2 -20 2 -26 23 -28 23 -3 27 1 37 50 12 54 17 89 30
212 5 50 4 70 -5 73 -52 20 -28 385 29 434 11 11 24 19 27 19 3 0 22 14 41 30
46 39 87 40 121 3z m-1914 -118 c81 -14 113 -41 113 -95 0 -10 5 -22 10 -25 6
-3 10 -16 10 -27 0 -24 27 -124 41 -150 5 -10 9 -27 9 -37 0 -11 5 -23 10 -26
6 -3 10 -19 10 -36 0 -16 5 -29 10 -29 6 0 10 -6 10 -14 0 -41 134 -255 170
-272 8 -4 524 -9 1145 -11 1260 -5 1194 -1 1259 -73 44 -49 52 -77 32 -115 -9
-17 -16 -25 -16 -20 0 6 -7 -2 -14 -17 -17 -31 -29 -108 -52 -323 -22 -201
-29 -245 -42 -278 -7 -16 -12 -40 -12 -54 0 -35 -49 -100 -61 -82 -5 9 -27 14
-58 14 -27 0 -47 3 -45 7 2 4 -5 9 -16 13 -11 4 -18 11 -15 16 4 5 1 10 -4 10
-6 1 -15 3 -21 4 -5 1 -12 3 -15 4 -3 0 -6 0 -7 -1 -2 -2 -21 8 -43 20 -22 13
-31 16 -20 7 11 -10 34 -23 52 -31 93 -40 144 -121 151 -237 4 -71 2 -82 -27
-141 -50 -101 -137 -155 -252 -156 -56 0 -77 6 -148 40 -46 22 -86 38 -89 36
-2 -3 1 -62 7 -130 9 -95 9 -131 0 -147 -8 -17 -8 -29 5 -58 9 -21 21 -104 30
-201 21 -248 15 -255 -207 -276 -104 -10 -149 -11 -169 -3 -21 8 -31 7 -50 -5
-16 -11 -72 -20 -172 -28 -162 -13 -179 -10 -217 42 -25 33 -45 212 -28 252 9
22 8 31 -5 50 -17 24 -21 84 -7 107 6 9 4 22 -6 37 -19 30 -40 226 -26 257 8
17 5 31 -9 59 -25 47 -17 87 23 128 33 33 44 35 213 51 88 8 125 8 146 -1 23
-9 33 -9 52 3 12 9 38 18 56 20 19 3 36 8 39 11 3 2 -64 39 -148 82 -331 165
-625 317 -643 333 -10 9 -32 40 -48 69 -33 57 -43 67 -27 25 5 -14 7 -33 5
-40 -3 -8 -2 -11 3 -8 5 3 13 -5 16 -17 4 -13 14 -31 23 -41 20 -23 1 -47 -22
-28 -8 7 -19 10 -24 7 -6 -3 -9 2 -8 12 1 13 -5 16 -29 14 -16 -2 -36 -9 -43
-15 -9 -7 -16 -7 -23 0 -7 7 -24 7 -51 1 -28 -6 -43 -5 -48 2 -4 6 -14 8 -23
4 -11 -4 -19 0 -23 10 -7 17 -44 22 -44 6 0 -5 -4 -10 -10 -10 -5 0 -7 7 -4
15 5 12 -3 15 -35 15 -23 0 -41 -5 -41 -11 0 -13 -89 -3 -104 12 -13 12 -66
12 -66 0 0 -5 -11 -4 -25 2 -14 7 -25 16 -25 20 0 7 -142 10 -350 8 -44 0 -45
0 -20 15 l25 15 -25 -7 c-14 -4 -28 -11 -31 -17 -4 -6 -15 -7 -25 -2 -28 13
-62 17 -134 18 -36 0 -57 2 -47 4 9 3 17 11 17 19 0 8 -8 14 -17 14 -15 0 -16
2 -3 10 8 5 11 10 6 10 -15 0 -46 -32 -47 -49 -1 -9 -4 -5 -8 9 -6 23 -12 25
-70 26 -53 1 -64 -2 -68 -16 -5 -20 -53 -33 -67 -19 -6 5 -1 9 13 9 14 0 21 5
18 13 -2 6 -18 11 -36 10 -27 -1 -31 2 -26 18 4 10 2 19 -4 19 -5 0 -13 -9
-16 -20 -7 -23 -35 -27 -35 -6 0 15 -25 16 -39 0 -5 -5 -11 -20 -14 -34 -4
-25 -4 -25 -6 2 -1 32 -40 65 -53 45 -5 -9 -14 -9 -38 0 -19 7 -32 8 -36 2 -3
-6 -11 -5 -20 2 -8 6 -25 9 -38 7 -15 -3 -27 0 -30 8 -7 17 -33 18 -39 2 -3
-10 -7 -10 -20 1 -10 7 -17 10 -17 5 0 -5 -5 -1 -11 9 -12 20 -35 23 -42 5 -4
-10 -8 -9 -16 2 -9 12 -13 12 -19 2 -6 -9 -21 -10 -67 -1 -44 8 -60 8 -63 -1
-3 -8 -8 -7 -19 1 -12 10 -16 10 -24 -2 -5 -9 -9 -10 -9 -2 0 6 5 15 10 18 12
8 13 35 2 35 -5 0 -22 -11 -38 -25 -35 -30 -44 -31 -44 -5 0 11 -7 20 -15 20
-8 0 -15 -7 -15 -15 0 -8 -7 -15 -15 -15 -8 0 -15 7 -15 15 0 11 -12 15 -51
15 -31 0 -48 4 -44 10 4 6 -5 10 -19 10 -14 0 -26 5 -26 10 0 6 -5 10 -11 10
-6 0 -9 -9 -6 -20 3 -11 1 -20 -4 -20 -5 0 -9 5 -9 10 0 15 -30 12 -31 -2 0
-7 -5 -3 -11 10 -7 13 -20 22 -35 22 -15 0 -23 6 -24 18 0 10 -2 12 -6 4 -3
-7 2 -24 11 -37 22 -34 4 -31 -36 5 -35 32 -68 39 -68 15 0 -11 -11 -15 -39
-15 -25 0 -41 5 -45 15 -7 20 -141 22 -150 3 -5 -10 -7 -10 -12 0 -3 6 -12 12
-20 12 -8 0 -23 9 -35 21 -11 11 -27 18 -35 15 -8 -3 -23 0 -34 6 -15 10 -27
10 -53 0 -45 -16 -53 -15 -76 9 -20 22 -41 19 -41 -7 0 -21 -37 -17 -105 11
-33 14 -64 25 -69 25 -5 0 -18 7 -28 17 -17 15 -18 15 -19 -3 0 -14 -3 -12
-11 9 -12 32 -38 36 -38 5 0 -20 -1 -20 -18 -5 -23 21 -33 22 -26 3 5 -13 -22
-26 -60 -26 -13 0 -17 5 -14 18 5 19 3 21 -47 25 -34 2 -41 10 -86 93 -35 63
-57 86 -102 105 -24 10 -27 16 -22 37 10 39 65 103 100 118 26 10 235 13 1076
14 574 1 1102 4 1172 7 120 6 130 8 156 32 35 33 86 109 96 141 4 14 15 41 25
60 9 19 22 46 27 60 6 14 15 36 21 50 6 14 13 36 15 50 10 46 38 165 48 196 5
17 9 37 9 45 1 25 34 55 80 72 55 20 81 26 97 21 6 -1 29 -6 50 -9z m-1747
-309 c0 -19 5 -38 10 -41 6 -3 10 -41 10 -85 0 -80 10 -99 41 -79 22 14 27 11
54 -34 16 -28 25 -59 25 -86 0 -23 5 -51 10 -62 10 -18 7 -19 -82 -18 -56 1
-83 4 -68 8 14 4 24 14 23 22 -1 8 -8 61 -17 119 -22 157 -30 290 -17 290 6 0
11 -15 11 -34z m3170 -371 c-6 -8 -9 -19 -5 -25 4 -6 -11 -10 -42 -9 -26 0
-41 3 -33 6 8 3 17 9 20 12 3 4 18 17 35 30 30 23 48 13 25 -14z m-2894 -20
c14 -13 12 -15 -15 -15 -21 0 -31 5 -31 15 0 8 7 15 16 15 8 0 22 -7 30 -15z
m1604 -1394 c0 -38 -49 -120 -87 -145 -44 -30 -97 -43 -107 -27 -11 18 13 88
41 122 30 35 117 80 139 72 8 -3 14 -13 14 -22z m-224 -212 c37 -11 51 -10
119 10 69 21 84 22 130 12 33 -8 67 -24 91 -45 l39 -33 -31 -27 c-68 -56 -84
-156 -39 -240 l25 -47 -28 -25 c-15 -13 -37 -34 -50 -45 -19 -18 -25 -19 -38
-8 -28 23 -354 461 -349 469 5 8 69 -2 131 -21z"/>
<path d="M3680 5620 c-25 -5 -89 -9 -142 -9 -67 -1 -98 -5 -98 -13 0 -8 43 -9
168 -2 191 10 242 10 477 -1 114 -4 167 -4 160 3 -17 17 -493 36 -565 22z"/>
<path d="M3255 5580 c3 -5 26 -10 51 -10 24 0 44 5 44 10 0 6 -23 10 -51 10
-31 0 -48 -4 -44 -10z"/>
<path d="M4330 5580 c0 -5 20 -10 45 -10 25 0 45 5 45 10 0 6 -20 10 -45 10
-25 0 -45 -4 -45 -10z"/>
<path d="M3138 5558 c16 -8 28 -8 45 0 19 9 17 11 -23 11 -40 0 -42 -2 -22
-11z"/>
<path d="M4488 5558 c8 -8 20 -8 44 -1 l33 11 -44 1 c-34 1 -42 -2 -33 -11z"/>
<path d="M3013 5538 c21 -7 32 -7 40 1 8 8 0 11 -28 10 -40 -1 -40 -1 -12 -11z"/>
<path d="M4618 5538 c8 -8 20 -8 44 -1 l33 11 -44 1 c-34 1 -42 -2 -33 -11z"/>
<path d="M2903 5523 c9 -2 25 -2 35 0 9 3 1 5 -18 5 -19 0 -27 -2 -17 -5z"/>
<path d="M4743 5523 c9 -2 23 -2 30 0 6 3 -1 5 -18 5 -16 0 -22 -2 -12 -5z"/>
<path d="M2813 5503 c9 -2 25 -2 35 0 9 3 1 5 -18 5 -19 0 -27 -2 -17 -5z"/>
<path d="M4833 5503 c9 -2 25 -2 35 0 9 3 1 5 -18 5 -19 0 -27 -2 -17 -5z"/>
<path d="M2738 5483 c7 -3 16 -2 19 1 4 3 -2 6 -13 5 -11 0 -14 -3 -6 -6z"/>
<path d="M4913 5483 c9 -2 23 -2 30 0 6 3 -1 5 -18 5 -16 0 -22 -2 -12 -5z"/>
<path d="M2668 5463 c7 -3 16 -2 19 1 4 3 -2 6 -13 5 -11 0 -14 -3 -6 -6z"/>
<path d="M4988 5463 c6 -2 18 -2 25 0 6 3 1 5 -13 5 -14 0 -19 -2 -12 -5z"/>
<path d="M5050 5450 c0 -5 10 -10 23 -10 18 0 19 2 7 10 -19 13 -30 13 -30 0z"/>
<path d="M2530 5430 c0 -5 5 -10 10 -10 6 0 10 5 10 10 0 6 -4 10 -10 10 -5 0
-10 -4 -10 -10z"/>
<path d="M5110 5431 c0 -11 26 -22 34 -14 3 3 3 10 0 14 -7 12 -34 11 -34 0z"/>
<path d="M2400 5070 c0 -5 5 -10 10 -10 6 0 10 5 10 10 0 6 -4 10 -10 10 -5 0
-10 -4 -10 -10z"/>
<path d="M5260 5070 c0 -5 7 -10 16 -10 8 0 12 5 9 10 -3 6 -10 10 -16 10 -5
0 -9 -4 -9 -10z"/>
<path d="M2335 5050 c-3 -5 -16 -10 -28 -10 -16 0 -18 -3 -9 -12 9 -9 17 -8
37 2 14 7 25 17 25 22 0 11 -18 10 -25 -2z"/>
<path d="M5310 5050 c0 -5 8 -10 18 -10 10 0 22 -4 28 -10 6 -6 15 -6 24 0 12
8 11 10 -7 10 -12 0 -25 5 -28 10 -3 6 -13 10 -21 10 -8 0 -14 -4 -14 -10z"/>
<path d="M5418 5013 c7 -3 16 -2 19 1 4 3 -2 6 -13 5 -11 0 -14 -3 -6 -6z"/>
<path d="M2960 4400 c-79 -14 -154 -72 -189 -147 -7 -15 -17 -36 -22 -45 -12
-24 -11 -165 1 -173 6 -3 10 -14 10 -24 0 -20 72 -100 112 -125 33 -19 69 -23
50 -4 -7 7 -12 23 -12 36 0 19 4 23 18 17 60 -24 161 -11 200 26 12 10 25 19
29 19 5 0 14 9 21 20 14 24 47 26 56 5 9 -24 23 -18 40 17 21 41 21 173 1 221
-16 39 -85 117 -103 117 -7 0 -12 5 -12 10 0 6 -9 10 -19 10 -11 0 -21 4 -23
9 -4 11 -112 18 -158 11z m-12 -126 c26 -18 30 -67 8 -90 -22 -22 -76 -18 -97
8 -22 24 -22 28 -10 62 14 36 62 46 99 20z"/>
<path d="M4560 4390 c0 -5 -9 -10 -19 -10 -27 0 -119 -86 -138 -129 -19 -42
-22 -206 -4 -224 6 -6 11 -19 11 -29 0 -10 4 -18 8 -18 5 0 14 -11 20 -24 13
-29 96 -89 117 -84 13 3 13 7 0 32 -19 35 -13 43 20 28 34 -16 90 -15 134 1
35 12 43 17 99 64 39 33 72 31 72 -4 l0 -27 20 22 c11 12 20 28 20 36 0 8 5
18 10 21 6 3 10 35 10 70 0 48 -7 79 -25 120 -28 61 -80 125 -101 125 -8 0
-14 5 -14 10 0 6 -9 10 -19 10 -11 0 -23 5 -26 10 -3 6 -48 10 -101 10 -56 0
-94 -4 -94 -10z m6 -106 c19 -5 44 -41 44 -63 0 -4 -8 -18 -19 -29 -21 -26
-75 -30 -97 -8 -28 29 -14 83 26 99 20 7 22 8 46 1z"/>
<path d="M1846 4154 c-8 -20 6 -46 39 -70 75 -54 135 -139 135 -189 0 -14 5
-25 10 -25 6 0 10 -11 10 -24 0 -14 5 -28 10 -31 6 -4 10 8 10 29 0 19 -4 38
-10 41 -5 3 -10 17 -10 31 0 13 -4 24 -10 24 -5 0 -10 9 -10 20 0 11 -4 20
-10 20 -5 0 -10 9 -10 21 0 30 -70 127 -102 141 -16 7 -28 16 -28 20 0 14 -18
8 -24 -8z"/>
<path d="M5810 4161 c0 -6 -7 -11 -16 -11 -15 0 -46 -29 -84 -77 -41 -52 -115
-263 -92 -263 5 0 22 39 37 87 30 90 58 129 136 187 41 30 54 60 33 77 -10 8
-14 8 -14 0z"/>
<path d="M4955 3111 c-47 -21 -99 -70 -121 -113 -23 -44 -29 -129 -13 -185 25
-90 61 -115 514 -344 l410 -208 65 2 c80 2 115 -16 139 -75 14 -35 27 -45 106
-86 80 -41 97 -46 155 -46 78 0 129 23 183 83 85 95 81 250 -9 332 -27 25
-596 321 -1067 555 -192 96 -213 104 -265 104 -33 0 -74 -8 -97 -19z m129 -54
c16 -12 16 -19 -12 -130 -16 -64 -27 -117 -23 -117 4 0 40 38 81 85 41 47 81
85 89 85 39 -1 41 -12 15 -129 -14 -62 -23 -115 -20 -118 3 -4 7 -4 9 -2 2 2
36 43 76 91 68 82 74 86 97 76 13 -6 23 -15 22 -19 -2 -4 -52 -61 -112 -127
-101 -113 -110 -120 -132 -110 -29 13 -29 4 -4 123 11 53 20 104 20 113 0 9
-36 -23 -81 -71 -44 -48 -84 -87 -88 -87 -4 0 -15 6 -25 13 -16 12 -15 21 14
157 42 201 39 193 74 167z m391 -201 c19 -14 19 -16 -8 -127 -15 -61 -26 -113
-24 -115 2 -2 39 34 81 81 77 85 89 92 115 76 11 -7 9 -29 -12 -127 -14 -66
-24 -120 -23 -122 2 -1 36 38 77 87 73 88 90 100 118 82 17 -11 -6 -41 -136
-179 -73 -78 -79 -83 -98 -69 -20 16 -20 18 21 227 4 19 -15 4 -79 -63 -81
-85 -86 -88 -109 -75 l-24 13 34 163 c20 89 38 162 42 162 3 0 15 -6 25 -14z
m443 -225 c123 -62 149 -139 85 -250 -31 -53 -96 -86 -146 -75 -25 5 -142 57
-155 69 -7 6 139 285 148 285 6 0 36 -13 68 -29z m331 -166 c47 -24 81 -72 81
-114 0 -21 -3 -41 -6 -44 -12 -12 -44 13 -44 34 0 50 -39 88 -91 89 -27 0 -42
-8 -66 -32 -60 -62 -69 -124 -24 -169 31 -31 86 -40 108 -18 13 13 63 4 63
-11 0 -18 -64 -50 -98 -50 -47 0 -94 22 -125 59 -53 63 -24 193 56 249 37 26
103 30 146 7z"/>
<path d="M5821 2493 c-28 -53 -50 -98 -48 -99 13 -13 93 -41 106 -37 43 13 64
30 82 65 23 45 24 86 3 116 -15 22 -63 52 -83 52 -5 0 -32 -43 -60 -97z"/>
<path d="M1520 3041 c0 -12 5 -21 10 -21 6 0 10 6 10 14 0 8 -4 18 -10 21 -5
3 -10 -3 -10 -14z"/>
<path d="M1920 2990 c0 -5 7 -10 16 -10 8 0 12 5 9 10 -3 6 -10 10 -16 10 -5
0 -9 -4 -9 -10z"/>
<path d="M5961 2746 c2 -2 15 -9 29 -15 24 -11 24 -11 6 3 -16 13 -49 24 -35
12z"/>
<path d="M4535 2711 c-7 -12 12 -24 25 -16 11 7 4 25 -10 25 -5 0 -11 -4 -15
-9z"/>
<path d="M4756 2702 c-3 -5 1 -9 9 -9 8 0 15 4 15 9 0 4 -4 8 -9 8 -6 0 -12
-4 -15 -8z"/>
<path d="M6430 2550 c-9 -6 -10 -10 -3 -10 6 0 15 5 18 10 8 12 4 12 -15 0z"/>
<path d="M5662 2220 c-51 -4 -81 -13 -102 -28 -28 -21 -31 -22 -55 -6 -23 15
-39 16 -163 4 -75 -6 -145 -16 -154 -21 -51 -27 -59 -103 -15 -134 19 -14 20
-16 4 -33 -32 -35 -17 -242 18 -268 16 -12 16 -14 1 -36 -23 -33 -20 -75 8
-103 14 -14 20 -27 15 -31 -22 -13 -27 -55 -18 -150 14 -150 27 -158 218 -139
107 11 140 18 163 35 26 19 30 20 59 5 26 -14 46 -15 152 -5 209 20 212 24
191 235 -7 77 -13 150 -14 162 0 12 -10 34 -23 49 -23 26 -23 27 -6 63 16 34
16 46 0 198 -14 145 -19 164 -40 187 -22 24 -31 26 -95 25 -39 -1 -104 -5
-144 -9z m218 -34 c16 -21 44 -330 31 -355 -12 -21 -44 -28 -191 -37 -85 -5
-108 -4 -117 8 -14 16 -47 312 -39 344 7 27 29 35 116 44 118 13 187 11 200
-4z m-387 -31 c20 -19 34 -190 18 -209 -13 -15 -41 -21 -153 -31 -67 -6 -68
-7 -68 -36 0 -33 1 -33 127 -21 91 10 113 2 113 -38 0 -40 -16 -46 -170 -60
-155 -13 -154 -14 -165 122 -9 110 -6 114 93 123 125 11 134 14 130 38 -2 14
-9 21 -21 21 -206 -17 -194 -18 -212 9 -13 20 -14 30 -5 46 6 12 12 21 13 22
5 2 225 26 254 28 17 0 38 -6 46 -14z"/>
<path d="M5692 2093 l-33 -4 6 -82 c10 -131 6 -124 72 -120 87 6 85 5 78 70
-16 153 -12 143 -53 141 -20 0 -52 -3 -70 -5z"/>
</g>
</svg>
